:SAMPLES-PER-SECOND 30
:FULLY-SPECIFIED
:DEGREES
400
root  -27.1623 39.2743 12.935 -177.286 86.0599 -172.665
RightUpLeg  -2.03944 -5.8022 -0.467102
RightLeg  20.7514 -2.19361 -2.62723
RightFoot  -12.9128 -0.000679786 6.34787
RightToes  -5.8209e-011 0 -3.6325e-017
Spine  4.82286 -4.11472 -4.61241
Spine1  21.4698 -9.49596 16.0041
HEad  -19.7722 -0.933339 1.33242
LeftShoulder1  2.14225 -5.02354 -18.5715
LeftArm  24.1561 -1.97196 -58.2432
LeftForeArm  21.4423 -53.8547 -13.6686
LeftHand  -0.685731 -3.80806 8.91302
RightShoulder  1.09484 0.85305 18.7082
RightArm  -22.7152 -5.34049 51.5716
RightForeArm  31.0968 11.4365 9.11976
RightHand  -0.504867 5.21164 -5.81676
LeftUpLeg  -14.9511 -3.37791 8.83641
LeftLeg  53.5807 2.99914 4.81249
LeftFoot  8.57942 1.72353 -10.1001
LeftToes  6.82088e-011 -2.45093e-011 5.71991e-013
401
root  -26.4575 39.3441 12.9478 172.205 87.4526 176.928
RightUpLeg  -0.465357 -6.07822 -1.2457
RightLeg  19.9396 -0.551048 -2.15645
RightFoot  -13.3603 0.0176721 6.14835
RightToes  -5.8209e-011 0 -3.6325e-017
Spine  4.66799 -3.15107 -3.9862
Spine1  20.9712 -7.90769 14.4282
HEad  -20.0167 -1.6104 1.72381
LeftShoulder1  2.1046 -5.06733 -17.9589
LeftArm  21.5675 -1.433 -57.0373
LeftForeArm  22.9259 -54.8304 -14.0881
LeftHand  -0.67742 -3.69201 8.91425
RightShoulder  1.06597 0.907058 17.6565
RightArm  -15.3941 -2.52416 51.9352
RightForeArm  24.3593 16.5063 7.1824
RightHand  -0.760666 5.75914 -8.2253
LeftUpLeg  -16.5613 -2.56949 8.2146
LeftLeg  48.2234 4.7919 6.11648
LeftFoot  5.84295 1.54088 -10.4198
LeftToes  6.82088e-011 -2.45093e-011 5.71991e-013
402
root  -25.7404 39.3956 12.9329 151.286 88.2261 155.93
RightUpLeg  0.938271 -6.41281 -2.11025
RightLeg  19.1698 0.701045 -1.82274
RightFoot  -13.9218 0.0402207 5.97225
RightToes  -5.8209e-011 0 -3.6325e-017
Spine  4.32139 -2.53632 -3.50803
Spine1  20.6192 -6.71265 12.7656
HEad  -20.3543 -2.18853 2.20294
LeftShoulder1  2.09284 -5.12585 -17.6311
LeftArm  18.977 -0.537574 -55.7295
LeftForeArm  24.2523 -56.0721 -14.71
LeftHand  -0.678359 -3.77427 8.85119
RightShoulder  1.03107 0.867138 17.0278
RightArm  -9.43901 0.32276 51.7507
RightForeArm  16.4331 21.5534 4.8204
RightHand  -0.960134 6.08296 -10.0158
LeftUpLeg  -17.2529 -1.72419 7.32519
LeftLeg  40.0782 7.12012 6.7344
LeftFoot  4.4484 1.47569 -10.8079
LeftToes  6.82088e-011 -2.45093e-011 5.71991e-013
403
root  -24.9803 39.3968 12.8916 131.261 88.32 135.586
RightUpLeg  2.08463 -6.69252 -2.79016
RightLeg  18.6374 1.36553 -1.73785
RightFoot  -14.6711 0.0741851 5.97371
RightToes  -5.8209e-011 0 -3.6325e-017
Spine  3.62839 -2.25058 -3.22095
Spine1  20.4143 -6.02389 11.4885
HEad  -20.4245 -2.64026 2.46933
LeftShoulder1  2.07785 -5.11849 -17.465
LeftArm  16.732 0.803657 -54.6665
LeftForeArm  24.5379 -57.4369 -15.5598
LeftHand  -0.723817 -3.83982 9.36039
RightShoulder  1.00327 0.81315 16.6475
RightArm  -9.50581 3.21105 50.8664
RightForeArm  13.4984 25.8107 4.70152
RightHand  -1.05372 6.21477 -10.8347
LeftUpLeg  -17.0806 -1.03752 6.22784
LeftLeg  29.3226 8.86999 5.71395
LeftFoot  5.33963 1.46993 -10.2422
LeftToes  6.82088e-011 -2.45093e-011 5.71991e-013
404
root  -24.1755 39.4032 12.8458 118.454 88.1627 122.282
RightUpLeg  3.31166 -6.84716 -3.33935
RightLeg  17.743 1.66065 -1.7766
RightFoot  -15.1838 0.0958098 5.92549
RightToes  -5.8209e-011 0 -3.6325e-017
Spine  2.51502 -2.05757 -3.358
Spine1  20.4486 -5.60724 10.5331
HEad  -20.0986 -2.97538 2.48887
LeftShoulder1  2.02502 -4.9719 -17.2401
LeftArm  15.3272 2.37345 -54.3023
LeftForeArm  23.3753 -58.3899 -16.3365
LeftHand  -0.817153 -3.80508 10.566
RightShoulder  0.987085 0.81907 16.202
RightArm  -11.6898 5.77605 49.7697
RightForeArm  12.3065 30.0349 5.86794
RightHand  -1.02782 6.00885 -10.7521
LeftUpLeg  -16.0206 -0.209818 4.92549
LeftLeg  16.4286 8.90622 3.29605
LeftFoot  7.1887 1.60974 -10.0952
LeftToes  6.82088e-011 -2.45093e-011 5.71991e-013
405
root  -23.3442 39.4041 12.7764 109.543 88.1068 112.852
RightUpLeg  4.70273 -6.91138 -3.74217
RightLeg  16.5385 1.79832 -1.81811
RightFoot  -15.5775 0.117193 6.01571
RightToes  -5.8209e-011 0 -3.6325e-017
Spine  1.1699 -1.86974 -3.60013
Spine1  20.7418 -5.24757 9.75214
HEad  -19.5429 -3.25226 2.44263
LeftShoulder1  1.95708 -4.77911 -16.9533
LeftArm  14.6546 4.09375 -54.6231
LeftForeArm  21.801 -58.7118 -16.7339
LeftHand  -0.898263 -3.84568 11.5375
RightShoulder  0.978563 0.871866 15.6837
RightArm  -13.6042 7.84874 48.6546
RightForeArm  10.5129 34.7011 7.17307
RightHand  -0.90808 5.38268 -10.0625
LeftUpLeg  -14.3709 0.71479 3.80969
LeftLeg  3.55107 8.31277 0.663198
LeftFoot  7.71098 2.00585 -12.2318
LeftToes  6.82088e-011 -2.45093e-011 5.71991e-013
406
root  -22.4758 39.3267 12.6522 110.447 88.2998 113.471
RightUpLeg  6.21572 -6.97455 -3.86455
RightLeg  15.7892 1.67493 -1.89932
RightFoot  -16.3099 0.178699 6.65442
RightToes  -5.8209e-011 0 -3.6325e-017
Spine  0.0320161 -1.74792 -3.63108
Spine1  21.1237 -5.06265 9.46346
HEad  -19.0227 -3.49084 2.50656
LeftShoulder1  1.92138 -4.67736 -16.798
LeftArm  14.2765 6.02859 -55.3133
LeftForeArm  20.6402 -58.546 -16.7306
LeftHand  -0.945119 -4.00383 11.9274
RightShoulder  0.970487 0.91995 15.2137
RightArm  -15.3287 9.56032 47.4974
RightForeArm  8.7603 39.7232 8.76263
RightHand  -0.804549 4.69869 -9.5298
LeftUpLeg  -13.5068 0.524379 3.38335
LeftLeg  -4.32193 9.37555 -1.60881
LeftFoot  6.01697 2.18787 -14.4612
LeftToes  6.82088e-011 -2.45093e-011 5.71991e-013
407
root  -21.5879 39.2348 12.5034 125.807 88.3215 128.896
RightUpLeg  8.13483 -7.07404 -3.93923
RightLeg  15.1956 1.13956 -2.08772
RightFoot  -16.811 0.247572 7.56962
RightToes  -5.8209e-011 0 -3.6325e-017
Spine  -0.498016 -1.72837 -4.14768
Spine1  21.5747 -5.18582 9.76075
HEad  -18.7049 -3.72601 2.89067
LeftShoulder1  1.91068 -4.6005 -16.8962
LeftArm  14.3502 7.88163 -56.1322
LeftForeArm  19.1283 -57.7466 -16.3098
LeftHand  -1.0419 -4.12729 12.9419
RightShoulder  0.954721 0.91593 14.8418
RightArm  -16.7922 10.8488 46.3647
RightForeArm  7.73208 44.8244 10.6148
RightHand  -0.809441 4.47159 -9.78636
LeftUpLeg  -13.9461 0.461376 2.56244
LeftLeg  -5.08879 9.76553 -2.43532
LeftFoot  4.99072 1.74122 -12.4035
LeftToes  6.82088e-011 -2.45093e-011 5.71991e-013
408
root  -20.6521 39.1782 12.3547 137.498 87.9421 140.875
RightUpLeg  10.3197 -7.18818 -4.34558
RightLeg  14.7253 0.68713 -2.29314
RightFoot  -16.6824 0.277797 8.36698
RightToes  -5.8209e-011 0 -3.6325e-017
Spine  -0.713084 -1.63943 -5.35032
Spine1  22.2461 -5.26419 10.1863
HEad  -18.5786 -4.11077 3.75698
LeftShoulder1  1.87285 -4.3359 -17.2367
LeftArm  15.4573 9.18419 -56.8276
LeftForeArm  16.0802 -55.8667 -15.3541
LeftHand  -1.24279 -4.13476 15.3473
RightShoulder  0.925232 0.807881 14.6872
RightArm  -18.0641 11.3639 45.3683
RightForeArm  7.698 49.699 12.6935
RightHand  -0.906499 4.65032 -10.7352
LeftUpLeg  -13.1847 -0.421503 1.33232
LeftLeg  -4.89085 9.86769 -2.19456
LeftFoot  8.93298 0.996112 -5.99557
LeftToes  6.82088e-011 -2.45093e-011 5.71991e-013
409
root  -19.6083 39.1399 12.1936 127.546 87.8001 131.067
RightUpLeg  12.0335 -7.07734 -5.12063
RightLeg  14.9142 1.00347 -2.50675
RightFoot  -16.1757 0.294515 9.56728
RightToes  -5.8209e-011 0 -3.6325e-017
Spine  -1.41039 -1.19382 -6.41772
Spine1  23.1766 -4.75875 10.1571
HEad  -18.5537 -4.73876 4.82357
LeftShoulder1  1.79424 -3.84641 -17.8005
LeftArm  17.4009 10.0898 -56.9932
LeftForeArm  11.3281 -52.9546 -14.0549
LeftHand  -1.43679 -4.00452 17.9192
RightShoulder  0.879069 0.556271 14.9088
RightArm  -19.0681 10.9125 44.7452
RightForeArm  8.22646 53.9741 14.9013
RightHand  -1.02029 4.76481 -11.9141
LeftUpLeg  -12.3148 -1.68487 0.202695
LeftLeg  -3.6964 10.0683 -1.15114
LeftFoot  13.5865 0.193254 -1.16216
LeftToes  6.82088e-011 -2.45093e-011 5.71991e-013
